# xmcd
#
# Track frame offsets:
#	150
#	12528
#	25632
#	48532
#	60762
#	73612
#	93002
#	112348
#	126262
#	139755
#	150644
#	162623
#	171689
#	185731
#	205229
#	221982
#	231092
#	243639
#
# Disc length: 3458 seconds
#
# Revision: 0
# Processed by: cddbd v1.5.2PL0 Copyright (c) Steve Scherf et al.
# Submitted via: EasyCDDAExtractor 16.0.6.1
#
DISCID=100d8012
DTITLE=Συλλογικός δίσκος - Τα μελοποιημένα 21
DYEAR=2010
DGENRE=Έντεχνη
TTITLE0=Μητσιάς Μανώλης - Κράτησα τη ζωή μου [Μ. Θεοδωράκης-Γ. Σεφέρης]
TTITLE1=Μοσχολιού Βίκυ - Σε γύρεψα [Σταμ. Κραουνάκης-Κώστας Τριπολίτης]
TTITLE2=Σουλτάτου Μαρία - Χείλι μου μοσκομύριστό [Μ. Θεοδωράκης-Γ. Ρίτσος]
TTITLE3=Χωματά Καίτη - Λυπημένα δειλινά [Γ. Σπανός-Ζαχ. Παπαντωνίου]
TTITLE4=Αστεριάδη Πόπη-Πουλόπουλος Γιάννης - Φραγκόκκλησα [Μ. Πλέσσας-Λ. Παπαδ
TTITLE4=όπουλος]
TTITLE5=Γιαννάτου Σαβίνα - Φεγγαράκι απάτητο [Μιχ. Γρηγορίου-Ρηνιώ Παπανικόλα]
TTITLE6=Μπάσης Δημήτρης - Μην κλαις [Ηλ. Ανδριόπουλος-Μιχ. Μπουρμπούλης]
TTITLE7=Αρλέτα - Άφτιαχτο κι αστόλιστο [Γ. Σπανός-Κωστής Παλαμάς]
TTITLE8=Αστεριάδη Πόπη - Το σύννεφο [Ν. Μαμαγκάκης-Δημ. Χριστοδούλου]
TTITLE9=Κούτρας Γιάννης-χορωδία - Καϋμένε Μακρυγιάννη [Στ. Κουγιουμτζής-Ντ. Χρ
TTITLE9=ιστιανόπουλος]
TTITLE10=Κηλαηδόνης Λουκιανός-Πρωτοψάλτη Ά.-Μούτσης Δ. - Κουβεντούλες με τον Φ
TTITLE10=ρόϋντ [Δ. Μούτσης-Κ. Τριπολίτης]
TTITLE11=Ξυδάκης Νίκος - Η Ευρυκόμη [Ν. Ξυδάκης-Διον. Σολωμός]
TTITLE12=Βελισσαρίου Ρένα - Χαλκίδα [Σαρ. Κασσάρας-Γιάννης Σκαρίμπας]
TTITLE13=Κουγιουμτζή Αιμιλία - Ο ναύτης [Στ. Κουγιουμτζής-Μίλτος Σαχτούρης]
TTITLE14=Μουτσάτσου Αναστασία-Θαλασσινός Παντελής - Το βαλς [Νότης Μαυρουδής-Τ
TTITLE14=άσος Σαμαρτζής]
TTITLE15=Μούτσιος Γιώργος - Διπλή αγάπη [Θεόδ. Σπάθης-Ιωάννης Πολέμης]
TTITLE16=Πασπαλά Έλλη - Το μήλο [Ν. Μαυρουδής-Πλάτων, απόδ., Ηλ. Πετρόπουλος]
TTITLE17=Βιτάλη Ελένη - Στο χέρι ένα γαρούφαλλο [Σπ. Σαμοΐλης-Νίκος Πανδής]
EXTD=
EXTT0=
EXTT1=
EXTT2=
EXTT3=
EXTT4=
EXTT5=
EXTT6=
EXTT7=
EXTT8=
EXTT9=
EXTT10=
EXTT11=
EXTT12=
EXTT13=
EXTT14=
EXTT15=
EXTT16=
EXTT17=
PLAYORDER=
